<svg width="25" height="25" viewBox="0 0 25 25" fill="none" xmlns="http://www.w3.org/2000/svg">
<path fill-rule="evenodd" clip-rule="evenodd" d="M20.9983 3.21303L3.68426 9.47341L9.45239 12.8119L14.5385 7.72441C14.7965 7.46658 15.1464 7.32181 15.5111 7.32194C15.8759 7.32207 16.2256 7.46709 16.4834 7.72509C16.7413 7.9831 16.886 8.33296 16.8859 8.69771C16.8858 9.06245 16.7408 9.41221 16.4828 9.67003L11.3953 14.7575L14.7365 20.5243L20.9983 3.21303ZM21.4424 0.127532C23.0855 -0.467843 24.6778 1.12441 24.0824 2.76753L16.8196 22.8494C16.2229 24.4967 13.9734 24.6974 13.0948 23.1808L8.67139 15.5385L1.02914 11.1152C-0.487489 10.2365 -0.286739 7.98703 1.36051 7.39028L21.4424 0.127532Z" fill="white"/>
</svg>
