<svg width="32" height="32" viewBox="0 0 32 32" fill="none" xmlns="http://www.w3.org/2000/svg">
<path d="M21.334 21.3327L16.0007 15.9993M16.0007 15.9993L10.6673 21.3327M16.0007 15.9993V27.9993M27.1873 24.5193C28.4878 23.8103 29.5151 22.6885 30.1072 21.3308C30.6992 19.9731 30.8223 18.457 30.457 17.0216C30.0916 15.5862 29.2587 14.3133 28.0896 13.4039C26.9205 12.4945 25.4818 12.0003 24.0007 11.9993H22.3207C21.9171 10.4383 21.1649 8.9891 20.1206 7.76064C19.0763 6.53219 17.7671 5.55645 16.2915 4.90679C14.8158 4.25714 13.2121 3.95046 11.6008 4.00983C9.98959 4.06919 8.41277 4.49305 6.98892 5.24954C5.56506 6.00603 4.33123 7.07545 3.38018 8.37743C2.42912 9.6794 1.7856 11.18 1.49799 12.7665C1.21037 14.353 1.28615 15.984 1.71963 17.537C2.15311 19.09 2.933 20.5245 4.00068 21.7327" stroke="url(#paint0_linear_36_73)" stroke-width="2.5" stroke-linecap="round" stroke-linejoin="round"/>
<defs>
<linearGradient id="paint0_linear_36_73" x1="15.9949" y1="4.00259" x2="15.9949" y2="27.9993" gradientUnits="userSpaceOnUse">
<stop stop-color="#00A878"/>
<stop offset="1" stop-color="#00422F"/>
</linearGradient>
</defs>
</svg>
